<svg height="480pt" viewBox="0 -19 480 479" width="480pt" xmlns="http://www.w3.org/2000/svg"><path d="m408 208.5h-96v-80c0-13.601562-10.398438-24-24-24h-8c-13.601562 0-24 10.398438-24 24v104h-16c-13.601562 0-24 10.398438-24 24v58.398438l48 88v37.601562h144v-38.398438l24-56v-113.601562c0-13.601562-10.398438-24-24-24zm-128 216v-16h112v16zm136-81.601562-21.601562 49.601562h-117.597657l-44.800781-82.398438v-53.601562c0-4.800781 3.199219-8 8-8h16v32h16v-152c0-4.800781 3.199219-8 8-8h8c4.800781 0 8 3.199219 8 8v136h16v-40h24v40h16v-40h24v40h16v-40h16c4.800781 0 8 3.199219 8 8zm0 0"/><path d="m376 350.101562-14.398438 21.597657 12.796876 9.601562 17.601562-26.402343v-34.398438h-16zm0 0"/><path d="m456 .5h-432c-13.601562 0-24 10.398438-24 24v304c0 13.601562 10.398438 24 24 24h184v-16h-184c-4.800781 0-8-3.199219-8-8v-304c0-4.800781 3.199219-8 8-8h432c4.800781 0 8 3.199219 8 8v304c0 4.800781-3.199219 8-8 8h-8v16h8c13.601562 0 24-10.398438 24-24v-304c0-13.601562-10.398438-24-24-24zm0 0"/><path d="m40 72.5h176v16h-176zm0 0"/><path d="m344 72.5h96v16h-96zm0 0"/><path d="m88 128.5c-26.398438 0-48 21.601562-48 48s21.601562 48 48 48 48-21.601562 48-48-21.601562-48-48-48zm0 80c-17.601562 0-32-14.398438-32-32s14.398438-32 32-32 32 14.398438 32 32-14.398438 32-32 32zm0 0"/><path d="m152 168.5h88v16h-88zm0 0"/><path d="m328 168.5h112v16h-112zm0 0"/><path d="m200 240.5v-16c-26.398438 0-48 21.601562-48 48s21.601562 48 48 48v-16c-17.601562 0-32-14.398438-32-32s14.398438-32 32-32zm0 0"/><path d="m40 264.5h96v16h-96zm0 0"/><path d="m324 99.699219c10.398438-24-.800781-52.800781-24.800781-63.199219s-52.800781.800781-63.199219 24.800781c-5.601562 12-5.601562 26.398438 0 38.398438l14.398438-6.398438c-5.597657-12-2.398438-26.402343 6.402343-35.199219 12.800781-12 32.800781-12 45.597657 0 9.601562 9.597657 12 23.199219 6.402343 35.199219zm0 0"/></svg>