<svg id="Layer_1" data-name="Layer 1" xmlns="http://www.w3.org/2000/svg" xmlns:xlink="http://www.w3.org/1999/xlink" viewBox="0 0 430.63 304.48"><defs><style>.cls-1{opacity:0.5;}.cls-2{fill:url(#linear-gradient);}.cls-3{fill:#fff;}.cls-4{fill:#1b75bc;}</style><linearGradient id="linear-gradient" x1="75.9" y1="300.5" x2="75.9" y2="3.99" gradientUnits="userSpaceOnUse"><stop offset="0" stop-color="#fff" stop-opacity="0"/><stop offset="1" stop-color="#fff"/></linearGradient></defs><title>Logo-مجالات تك</title><g class="cls-1"><path class="cls-2" d="M75.9,300.5A35.91,35.91,0,0,1,40,264.58V39.9a35.91,35.91,0,0,1,71.83,0V264.58A35.91,35.91,0,0,1,75.9,300.5Z"/></g><path class="cls-3" d="M355.07,300.5a35.91,35.91,0,0,1-35.91-35.91V39.9a35.91,35.91,0,0,1,71.83,0V264.58A35.91,35.91,0,0,1,355.07,300.5Z"/><path class="cls-3" d="M75.56,300.5a33,33,0,0,1-3.54-.18,32.47,32.47,0,0,1-3.48-.52c-1.15-.23-2.3-.52-3.41-.86s-2.23-.74-3.3-1.19a34.42,34.42,0,0,1-3.18-1.51,34.78,34.78,0,0,1-3-1.8,35.28,35.28,0,0,1-2.84-2.1c-.9-.74-1.78-1.53-2.62-2.37s-1.62-1.71-2.37-2.62a33.05,33.05,0,0,1-2.08-2.84c-.65-1-1.26-2-1.81-3s-1-2.1-1.49-3.18-.84-2.19-1.18-3.3-.63-2.26-.86-3.41a35.8,35.8,0,0,1,0-14c.23-1.13.52-2.28.86-3.41s.74-2.23,1.18-3.3,1-2.14,1.49-3.18,1.17-2,1.81-3,1.35-1.94,2.08-2.84,1.54-1.8,2.37-2.62,1.72-1.63,2.62-2.37,1.87-1.46,2.84-2.1,2-1.24,3-1.8a34,34,0,0,1,3.18-1.51c1.08-.45,2.19-.84,3.3-1.18s2.26-.63,3.41-.86,2.32-.39,3.48-.52a35.68,35.68,0,0,1,7.06,0c1.17.13,2.33.29,3.48.52s2.3.52,3.41.86a34.47,34.47,0,0,1,3.32,1.18q1.62.67,3.18,1.51c1,.56,2,1.15,3,1.8s1.92,1.36,2.84,2.1a32.49,32.49,0,0,1,2.62,2.37c.83.83,1.62,1.71,2.37,2.62s1.44,1.87,2.1,2.84,1.24,2,1.8,3,1.06,2.1,1.49,3.18.86,2.19,1.2,3.3.63,2.28.86,3.41.4,2.33.52,3.48.18,2.37.18,3.54-.07,2.37-.18,3.54-.31,2.33-.52,3.48-.52,2.3-.86,3.41-.75,2.23-1.2,3.3a34.29,34.29,0,0,1-1.49,3.18c-.56,1-1.15,2-1.8,3s-1.36,1.94-2.1,2.84-1.54,1.8-2.37,2.62a29.79,29.79,0,0,1-2.62,2.37,35.28,35.28,0,0,1-2.84,2.1,34.47,34.47,0,0,1-3,1.8q-1.56.83-3.18,1.51A35,35,0,0,1,86,298.93c-1.11.34-2.26.63-3.41.86a32.47,32.47,0,0,1-3.48.52A32.85,32.85,0,0,1,75.56,300.5Z"/><circle class="cls-3" cx="255.73" cy="39.5" r="24.45"/><circle class="cls-3" cx="175.06" cy="39.5" r="24.45"/><path class="cls-3" d="M391,39.79v.38c-.36,96.55-79,175-175.65,175S40,136.73,39.65,40.17v-.38a1.74,1.74,0,0,1,0-.31,35.9,35.9,0,0,1,71.79,0,3.18,3.18,0,0,1,0,.41,103.84,103.84,0,0,0,207.67,0,3.2,3.2,0,0,1,0-.41,35.9,35.9,0,0,1,71.79,0A1.74,1.74,0,0,1,391,39.79Z"/><path class="cls-3" d="M39.65,39.49v.31a1.74,1.74,0,0,1,0-.31Zm71.81,0a3.18,3.18,0,0,1,0,.41v-.41Zm207.69,0v.41a3.2,3.2,0,0,1,0-.41Zm71.81,0a1.74,1.74,0,0,1,0,.31v-.31Z"/><path class="cls-4" d="M70.89,260.62H67.64q-1,0-1-1.08T68,258.35a3.89,3.89,0,0,1,1.43.34l1.08-2.17a5.85,5.85,0,0,0-2.46-.54,4.36,4.36,0,0,0-2.78.91,3.16,3.16,0,0,0-1.16,2.64,4.21,4.21,0,0,0,.2,1.08H62.76v2.46h8.13Z"/><rect class="cls-4" x="92.86" y="250.45" width="4.46" height="4.46" transform="translate(-150.82 141.25) rotate(-45)"/><rect class="cls-4" x="86.55" y="250.45" width="4.46" height="4.46" transform="translate(-152.67 136.79) rotate(-45)"/><path class="cls-4" d="M90.41,272.3a2.81,2.81,0,0,1-.76,2.34,3.92,3.92,0,0,1-2.34.57H85.72a3.1,3.1,0,0,1-2-.69,2.08,2.08,0,0,1-.86-1.68V249.53l-4.44,1.58v21.14a2.89,2.89,0,0,1-.76,2.36,3.8,3.8,0,0,1-2.34.59H58a3.7,3.7,0,0,1-2.32-.62,2.84,2.84,0,0,1-.79-2.34v-6.16l-4.43,1.58v5.17q0,6.8,7.15,6.8h18A7.68,7.68,0,0,0,81,278a7.24,7.24,0,0,0,4.58,1.67H87.7q7.14,0,7.15-6.8V259.19l-4.44,1.58Z"/></svg>