<?xml version="1.0" encoding="iso-8859-1"?>
<!-- Generator: Adobe Illustrator 19.0.0, SVG Export Plug-In . SVG Version: 6.00 Build 0)  -->
<svg version="1.1" id="Capa_1" xmlns="http://www.w3.org/2000/svg" xmlns:xlink="http://www.w3.org/1999/xlink" x="0px" y="0px"
	 viewBox="0 0 512 512" style="enable-background:new 0 0 512 512;" xml:space="preserve">
<g>
	<g>
		<path d="M89.38,278.424c-34.268,0-62.146,27.878-62.146,62.146c0,18.02,7.716,34.265,20.008,45.626
			C19.148,401.278,0,430.943,0,465v15h107.003v-13.766c0-30.149,9-59.216,26.026-84.058c4.039-5.893,8.474-11.443,13.246-16.647
			c3.367-7.645,5.25-16.084,5.25-24.959C151.525,306.303,123.647,278.424,89.38,278.424z"/>
	</g>
</g>
<g>
	<g>
		<path d="M464.758,386.196c12.293-11.361,20.008-27.606,20.008-45.626c0-34.267-27.878-62.146-62.146-62.146
			c-34.267,0-62.146,27.878-62.146,62.146c0,8.875,1.883,17.315,5.25,24.959c4.772,5.205,9.208,10.755,13.246,16.647
			c17.026,24.841,26.026,53.908,26.026,84.058V480H512v-15C512,430.943,492.852,401.279,464.758,386.196z"/>
	</g>
</g>
<g>
	<g>
		<path d="M300.88,356.033c21.452-14.468,35.587-38.993,35.587-66.758c0-44.37-36.097-80.467-80.467-80.467
			s-80.467,36.097-80.467,80.467c0,27.765,14.135,52.29,35.587,66.758c-43.432,17.752-74.117,60.457-74.117,110.201V480h237.994
			v-13.766C374.997,416.49,344.312,373.785,300.88,356.033z"/>
	</g>
</g>
<g>
	<g>
		<polygon points="293.569,74.536 271,94.597 271,32 241,32 241,94.597 218.431,74.536 198.5,96.958 256,148.069 313.499,96.958 		
			"/>
	</g>
</g>
<g>
	<g>
		
			<rect x="146.458" y="129.381" transform="matrix(0.6412 -0.7674 0.7674 0.6412 -61.2222 179.6146)" width="30.001" height="51.788"/>
	</g>
</g>
<g>
	<g>
		
			<rect x="111.995" y="196.861" transform="matrix(0.3806 -0.9247 0.9247 0.3806 -121.1021 251.2481)" width="30.002" height="38.322"/>
	</g>
</g>
<g>
	<g>
		
			<rect x="324.64" y="140.254" transform="matrix(0.7674 -0.6411 0.6411 0.7674 -18.0157 260.8427)" width="51.785" height="29.999"/>
	</g>
</g>
<g>
	<g>
		
			<rect x="365.818" y="201.004" transform="matrix(0.9247 -0.3806 0.3806 0.9247 -53.2367 162.7693)" width="38.322" height="30.002"/>
	</g>
</g>
<g>
</g>
<g>
</g>
<g>
</g>
<g>
</g>
<g>
</g>
<g>
</g>
<g>
</g>
<g>
</g>
<g>
</g>
<g>
</g>
<g>
</g>
<g>
</g>
<g>
</g>
<g>
</g>
<g>
</g>
</svg>
